<svg width="2391" height="2333" viewBox="0 0 2391 2333" fill="none" xmlns="http://www.w3.org/2000/svg">
<path d="M63.2889 2318.5C63.2889 2318.5 1999.79 2348.5 2187.79 2318.5C2375.79 2288.5 2397.29 2151.5 2226.29 2070.5C2055.29 1989.5 460.789 2104.5 195.789 2070.5C-69.2112 2036.5 11.7885 1801 234.289 1801C456.789 1801 2042.29 1801 2226.29 1801C2410.29 1801 2427.29 1505.33 2166.79 1531.5C1906.29 1557.67 353.789 1557.5 165.789 1557.5C-22.2112 1557.5 -94.7113 1216 195.789 1254C486.289 1292 2127.79 1292 2226.29 1292C2324.79 1292 2440.29 1074 2166.79 1040C1893.29 1006 315.289 1079.31 135.789 1040C-43.7113 1000.69 -26.7113 792 195.789 792C959.75 806.106 1162.72 819.124 2187.79 792C2448.79 762 2453.29 591 2226.29 527C2226.29 527 400.788 552.5 195.789 552.5C-9.21095 552.5 -11.5734 236 195.789 236C563.289 236 2002.54 283 2187.79 283C2483.29 283 2371.79 0.999968 2226.29 1C2148.24 1.00002 763.122 29.6664 63.2889 22.4998" stroke="black"/>
</svg>
