<svg width="2560" height="2560" viewBox="0 0 2560 2560" fill="none" xmlns="http://www.w3.org/2000/svg">
<path d="M147.289 2432.5C147.289 2432.5 2083.79 2462.5 2271.79 2432.5C2459.79 2402.5 2481.29 2265.5 2310.29 2184.5C2139.29 2103.5 544.789 2218.5 279.789 2184.5C14.7888 2150.5 95.7885 1915 318.289 1915C540.789 1915 2126.29 1915 2310.29 1915C2494.29 1915 2511.29 1619.33 2250.79 1645.5C1990.29 1671.67 437.789 1671.5 249.789 1671.5C61.7888 1671.5 -10.7113 1330 279.789 1368C570.289 1406 2211.79 1406 2310.29 1406C2408.79 1406 2524.29 1188 2250.79 1154C1977.29 1120 399.289 1193.31 219.789 1154C40.2887 1114.69 57.2887 906 279.789 906C1043.75 920.106 1246.72 933.124 2271.79 906C2532.79 876 2537.29 705 2310.29 641C2310.29 641 484.788 666.5 279.789 666.5C74.789 666.5 72.4266 350 279.789 350C647.289 350 2086.54 397 2271.79 397C2567.29 397 2455.79 115 2310.29 115C2232.24 115 847.122 143.666 147.289 136.5" stroke="black"/>
</svg>
