<svg width="602" height="716" viewBox="0 0 602 716" fill="none" xmlns="http://www.w3.org/2000/svg">
<path fill-rule="evenodd" clip-rule="evenodd" d="M223.934 17.4481L223.933 17.4482L223.932 17.4483C221.07 17.9696 218.204 18.4918 215.333 19.0119C213.232 19.3924 211.109 19.7735 208.967 20.1579C182.289 24.9458 152.746 30.2478 128.522 41.4626C98.3421 55.4347 74.3738 81.5989 51.7296 106.318L51.7288 106.319C49.2031 109.076 46.6938 111.815 44.1942 114.517C44.0286 114.696 43.8294 114.826 43.6153 114.905C42.3435 115.957 41.2613 117.104 40.3122 118.36C40.2309 122.85 39.2288 127.875 37.7153 133.02C37.7126 134.102 37.5762 135.18 37.4517 136.163C37.3935 136.623 37.3379 137.062 37.2998 137.472C36.6793 144.143 37.5249 151.497 39.3699 157.932C41.7326 166.172 44.5515 174.432 48.4149 181.986C53.28 191.498 60.5388 200.077 68.6646 207.11C76.8864 214.226 87.5501 219.396 98.1466 221.944C108.166 224.354 119.047 225.915 128.779 223.075C132.249 222.062 135.199 220.391 137.856 217.931C143.36 212.837 148.148 206.396 151.916 199.852C154.609 195.174 156.339 190.159 157.693 184.842C159.344 178.354 160.377 171.87 159.6 165.362C159.045 160.723 157.829 156.191 155.295 152.436C152.453 148.223 147.534 145.232 142.777 142.725C132.706 137.417 120.289 136.733 108.824 137.602C99.5246 138.306 90.8284 140.624 82.6543 144.995C81.5225 145.601 80.6054 146.164 79.8378 146.932C79.2521 147.518 78.3023 147.518 77.7165 146.932C77.1307 146.346 77.1307 145.396 77.7165 144.81C78.8075 143.719 80.0464 142.988 81.2396 142.35C89.8223 137.76 98.9312 135.343 108.598 134.61C120.247 133.728 133.352 134.366 144.176 140.071C148.927 142.575 154.477 145.859 157.782 150.758C160.686 155.061 161.995 160.119 162.578 165.006C163.42 172.048 162.289 178.948 160.6 185.582C159.209 191.047 157.395 196.348 154.516 201.349C150.635 208.089 145.669 214.787 139.894 220.132C136.896 222.907 133.536 224.812 129.62 225.955C119.093 229.026 107.558 227.293 97.4451 224.861C86.4333 222.213 75.3236 216.841 66.7014 209.378C58.3467 202.148 50.8191 193.275 45.744 183.352C41.7537 175.55 38.8721 167.081 36.4861 158.759C35.1026 153.934 34.2494 148.607 34.1164 143.372C30.912 151.513 27.041 159.408 24.007 165.476C11.4928 190.505 6.11303 207.914 6.11303 235.352V235.507V235.663V235.818V235.974V236.129V236.285V236.44V236.595V236.751V236.906V237.062V237.217V237.372V237.528V237.683V237.839V237.994V238.15V238.305V238.46V238.616V238.771V238.927V239.082V239.237V239.393V239.548V239.704V239.859V240.014V240.17V240.325V240.481V240.636V240.792V240.947V241.102V241.258V241.413V241.569V241.724V241.879V242.035V242.19V242.346V242.501V242.657V242.812V242.967V243.123V243.278V243.434V243.589V243.744V243.9V244.055V244.211V244.366V244.522V244.677V244.832V244.988V245.143V245.299V245.454V245.609V245.765V245.92V246.076V246.231V246.387V246.542V246.697V246.853V247.008V247.164V247.319V247.474V247.63V247.785V247.941V248.096V248.252V248.407V248.562V248.718V248.873V249.029V249.184V249.339V249.495V249.65V249.806V249.961V250.117V250.272V250.427V250.583V250.738V250.894V251.049V251.204V251.36V251.515V251.671V251.826V251.982V252.137V252.292V252.448V252.603V252.759V252.914V253.069V253.225V253.38V253.536V253.691V253.847V254.002V254.157V254.313V254.468V254.624V254.779V254.934V255.09V255.245V255.401V255.556V255.712V255.867V256.022V256.178V256.333V256.489V256.644V256.799V256.955V257.11V257.266V257.421V257.576V257.732V257.887V258.043V258.198V258.354V258.509V258.664V258.82V258.975V259.131V259.286V259.441V259.597V259.752V259.908V260.063V260.219V260.374V260.529V260.685V260.84V260.996V261.151V261.306V261.462V261.617V261.773V261.928V262.084V262.239V262.394V262.55V262.705V262.861V263.016V263.171V263.327V263.482V263.638V263.793V263.949V264.104V264.259V264.415V264.57V264.726V264.881V265.036V265.192V265.347V265.503V265.658V265.814V265.969V266.124V266.28V266.435V266.591V266.746V266.901V267.057V267.212V267.368V267.523V267.679V267.834V267.989V268.145V268.3V268.456V268.611V268.766V268.922V269.077V269.233V269.388V269.544V269.699V269.854V270.01V270.165V270.321V270.476V270.631V270.787V270.942V271.098V271.253V271.409V271.564V271.719V271.875V272.03V272.186V272.341V272.496V272.652V272.807V272.963V273.118V273.273V273.429V273.584V273.74V273.895V274.051V274.206V274.361V274.517V274.672V274.828V274.983V275.138V275.294V275.449V275.605V275.76V275.916V276.071V276.226V276.382V276.537V276.693V276.848V277.003V277.159V277.314V277.47V277.625V277.781V277.936V278.091V278.247V278.402V278.558V278.713V278.868V279.024V279.179V279.335V279.49V279.646V279.801V279.956V280.112V280.267V280.423V280.578V280.733V280.889V281.044V281.2V281.355V281.511V281.666V281.821V281.977V282.132V282.288V282.443V282.598V282.754V282.909V283.065V283.22V283.376V283.531V283.686V283.842V283.997V284.153V284.308V284.463V284.619V284.774V284.93V285.085V285.241V285.396V285.551V285.707V285.862V286.018V286.173V286.328V286.484V286.639V286.795V286.95V287.105V287.261V287.416V287.572V287.727V287.883V288.038V288.193V288.349V288.504V288.66V288.815V288.97V289.126V289.281V289.437V289.592V289.748V289.903V290.058V290.214V290.369V290.525V290.68V290.835V290.991V291.146V291.302V291.457V291.613V291.768V291.923V292.079V292.234V292.39V292.545V292.7V292.856V293.011V293.167V293.322V293.478V293.633V293.788V293.944V294.099V294.255V294.41V294.565V294.721V294.876V295.032V295.187V295.343V295.498V295.653V295.809V295.964V296.12V296.275V296.43V296.586V296.741V296.897V297.052V297.208V297.363V297.518V297.674V297.829V297.985V298.14V298.295V298.451V298.606V298.762V298.917V299.073V299.228V299.383V299.539V299.694V299.85V300.005V300.16V300.316V300.471V300.627V300.782V300.938V301.093V301.248V301.404V301.559V301.715V301.87V302.025V302.181V302.336V302.492V302.647V302.803V302.958V303.113V303.269V303.424V303.58V303.735V303.89V304.046V304.201V304.357V304.512V304.668V304.823V304.978V305.134V305.289V305.445V305.6V305.755V305.911V306.066V306.222V306.377V306.533V306.688V306.843V306.999V307.154V307.31V307.465V307.62V307.776V307.931V308.087V308.242V308.397V308.553V308.708V308.864V309.019V309.175V309.33V309.485V309.641V309.796V309.952V310.107V310.262V310.418V310.573V310.729V310.884V311.04V311.195V311.35V311.506V311.661V311.817V311.972V312.127V312.283V312.438V312.594V312.749V312.905V313.06V313.215V313.371V313.526V313.682V313.837V313.992V314.148V314.303V314.459V314.614V314.77V314.925C6.11303 333.419 5.45381 352.758 4.78125 372.488C4.65667 376.143 4.53164 379.811 4.41025 383.49C3.63305 407.043 3.00458 431.044 3.59301 454.816C4.77027 502.376 10.8184 548.882 30.1911 588.857C40.7487 610.642 56.1095 638.732 75.4973 662.45C94.9135 686.203 118.187 705.347 144.523 709.647C206.459 719.759 283.761 705.25 339.854 679.361C348.747 675.256 357.686 671.21 366.625 667.164L366.646 667.154L366.647 667.154C440.961 633.516 515.276 599.878 563.732 532.577C601.012 480.799 599.441 425.394 597.724 364.874L597.724 364.862C597.524 357.798 597.322 350.664 597.179 343.458C594.684 217.485 550.849 92.9261 436.661 28.8202C369.252 -9.02343 298.107 3.93642 223.934 17.4481ZM34.7168 132.578C33.8621 135.434 32.8384 138.36 31.7098 141.286C28.4889 149.635 24.4791 157.824 21.3238 164.134C8.65725 189.467 3.11303 207.338 3.11303 235.352V235.507V235.663V235.818V235.974V236.129V236.285V236.44V236.595V236.751V236.906V237.062V237.217V237.372V237.528V237.683V237.839V237.994V238.15V238.305V238.46V238.616V238.771V238.927V239.082V239.237V239.393V239.548V239.704V239.859V240.014V240.17V240.325V240.481V240.636V240.792V240.947V241.102V241.258V241.413V241.569V241.724V241.879V242.035V242.19V242.346V242.501V242.657V242.812V242.967V243.123V243.278V243.434V243.589V243.744V243.9V244.055V244.211V244.366V244.522V244.677V244.832V244.988V245.143V245.299V245.454V245.609V245.765V245.92V246.076V246.231V246.387V246.542V246.697V246.853V247.008V247.164V247.319V247.474V247.63V247.785V247.941V248.096V248.252V248.407V248.562V248.718V248.873V249.029V249.184V249.339V249.495V249.65V249.806V249.961V250.117V250.272V250.427V250.583V250.738V250.894V251.049V251.204V251.36V251.515V251.671V251.826V251.982V252.137V252.292V252.448V252.603V252.759V252.914V253.069V253.225V253.38V253.536V253.691V253.847V254.002V254.157V254.313V254.468V254.624V254.779V254.934V255.09V255.245V255.401V255.556V255.712V255.867V256.022V256.178V256.333V256.489V256.644V256.799V256.955V257.11V257.266V257.421V257.576V257.732V257.887V258.043V258.198V258.354V258.509V258.664V258.82V258.975V259.131V259.286V259.441V259.597V259.752V259.908V260.063V260.219V260.374V260.529V260.685V260.84V260.996V261.151V261.306V261.462V261.617V261.773V261.928V262.084V262.239V262.394V262.55V262.705V262.861V263.016V263.171V263.327V263.482V263.638V263.793V263.949V264.104V264.259V264.415V264.57V264.726V264.881V265.036V265.192V265.347V265.503V265.658V265.814V265.969V266.124V266.28V266.435V266.591V266.746V266.901V267.057V267.212V267.368V267.523V267.679V267.834V267.989V268.145V268.3V268.456V268.611V268.766V268.922V269.077V269.233V269.388V269.544V269.699V269.854V270.01V270.165V270.321V270.476V270.631V270.787V270.942V271.098V271.253V271.409V271.564V271.719V271.875V272.03V272.186V272.341V272.496V272.652V272.807V272.963V273.118V273.273V273.429V273.584V273.74V273.895V274.051V274.206V274.361V274.517V274.672V274.828V274.983V275.138V275.294V275.449V275.605V275.76V275.916V276.071V276.226V276.382V276.537V276.693V276.848V277.003V277.159V277.314V277.47V277.625V277.781V277.936V278.091V278.247V278.402V278.558V278.713V278.868V279.024V279.179V279.335V279.49V279.646V279.801V279.956V280.112V280.267V280.423V280.578V280.733V280.889V281.044V281.2V281.355V281.511V281.666V281.821V281.977V282.132V282.288V282.443V282.598V282.754V282.909V283.065V283.22V283.376V283.531V283.686V283.842V283.997V284.153V284.308V284.463V284.619V284.774V284.93V285.085V285.241V285.396V285.551V285.707V285.862V286.018V286.173V286.328V286.484V286.639V286.795V286.95V287.105V287.261V287.416V287.572V287.727V287.883V288.038V288.193V288.349V288.504V288.66V288.815V288.97V289.126V289.281V289.437V289.592V289.748V289.903V290.058V290.214V290.369V290.525V290.68V290.835V290.991V291.146V291.302V291.457V291.613V291.768V291.923V292.079V292.234V292.39V292.545V292.7V292.856V293.011V293.167V293.322V293.478V293.633V293.788V293.944V294.099V294.255V294.41V294.565V294.721V294.876V295.032V295.187V295.343V295.498V295.653V295.809V295.964V296.12V296.275V296.43V296.586V296.741V296.897V297.052V297.208V297.363V297.518V297.674V297.829V297.985V298.14V298.295V298.451V298.606V298.762V298.917V299.073V299.228V299.383V299.539V299.694V299.85V300.005V300.16V300.316V300.471V300.627V300.782V300.938V301.093V301.248V301.404V301.559V301.715V301.87V302.025V302.181V302.336V302.492V302.647V302.803V302.958V303.113V303.269V303.424V303.58V303.735V303.89V304.046V304.201V304.357V304.512V304.668V304.823V304.978V305.134V305.289V305.445V305.6V305.755V305.911V306.066V306.222V306.377V306.533V306.688V306.843V306.999V307.154V307.31V307.465V307.62V307.776V307.931V308.087V308.242V308.397V308.553V308.708V308.864V309.019V309.175V309.33V309.485V309.641V309.796V309.952V310.107V310.262V310.418V310.573V310.729V310.884V311.04V311.195V311.35V311.506V311.661V311.817V311.972V312.127V312.283V312.438V312.594V312.749V312.905V313.06V313.215V313.371V313.526V313.682V313.837V313.992V314.148V314.303V314.459V314.614V314.77V314.925C3.11303 333.363 2.45591 352.642 1.78337 372.374C1.6587 376.032 1.53351 379.705 1.41188 383.391C0.634509 406.949 0.00318944 431.024 0.593927 454.89C1.77498 502.604 7.84095 549.617 27.4914 590.165C38.0911 612.038 53.5712 640.367 73.1745 664.349C92.7495 688.295 116.617 708.13 144.04 712.607C206.675 722.834 284.584 708.174 341.111 682.085C349.994 677.985 358.938 673.938 367.895 669.885C442.117 636.302 517.211 602.324 566.166 534.33C604.075 481.68 602.458 425.22 600.728 364.811L600.727 364.8C600.525 357.721 600.321 350.587 600.178 343.399C597.673 216.885 553.625 91.0437 438.129 26.2042C369.755 -12.1811 297.605 0.969816 223.726 14.436L223.72 14.4371C220.749 14.9787 217.775 15.5207 214.798 16.0599C212.68 16.4438 210.534 16.8286 208.367 17.2174C181.774 21.9875 151.855 27.3542 127.262 38.7402C96.4986 52.9823 72.109 79.6174 49.5363 104.268C47.1394 106.886 44.763 109.481 42.4016 112.037C41.95 112.383 41.5189 112.739 41.1067 113.104C40.6728 113.059 40.2231 113.202 39.8906 113.535L35.3599 118.066C34.7741 118.651 34.7741 119.601 35.3599 120.187C35.4139 120.241 35.4709 120.29 35.5305 120.334C35.0854 121.175 34.6712 122.044 34.2787 122.941C33.8409 123.942 33.8221 125.198 33.9007 126.2C33.9836 127.256 34.2005 128.315 34.4385 129.076C34.7394 130.039 34.731 130.964 34.7199 132.202V132.203C34.7188 132.324 34.7177 132.449 34.7168 132.578Z" fill="black"/>
</svg>
